<svg width="7" height="6" viewBox="0 0 7 6" fill="none" xmlns="http://www.w3.org/2000/svg">
<path d="M0.9 5.054C0.748 5.054 0.63 5.012 0.546 4.928C0.466 4.844 0.426 4.722 0.426 4.562V1.256C0.426 1.1 0.468 0.98 0.552 0.896C0.636 0.812 0.756 0.77 0.912 0.77H2.964C3.084 0.77 3.174 0.802 3.234 0.866C3.298 0.926 3.33 1.014 3.33 1.13C3.33 1.25 3.298 1.342 3.234 1.406C3.174 1.466 3.084 1.496 2.964 1.496H1.356V2.528H2.832C2.952 2.528 3.044 2.56 3.108 2.624C3.172 2.684 3.204 2.772 3.204 2.888C3.204 3.004 3.172 3.094 3.108 3.158C3.044 3.222 2.952 3.254 2.832 3.254H1.356V4.562C1.356 4.89 1.204 5.054 0.9 5.054ZM3.99984 5.042C3.88784 5.042 3.79784 5.012 3.72984 4.952C3.66184 4.888 3.62584 4.808 3.62184 4.712C3.62184 4.616 3.66184 4.518 3.74184 4.418L4.67184 3.278V3.686L3.80784 2.63C3.72384 2.526 3.68384 2.426 3.68784 2.33C3.69184 2.234 3.72784 2.156 3.79584 2.096C3.86384 2.036 3.95384 2.006 4.06584 2.006C4.17384 2.006 4.26384 2.024 4.33584 2.06C4.40784 2.096 4.47584 2.156 4.53984 2.24L5.18184 3.062H4.86384L5.50584 2.24C5.57384 2.156 5.64384 2.096 5.71584 2.06C5.78784 2.024 5.87584 2.006 5.97984 2.006C6.09184 2.006 6.18184 2.038 6.24984 2.102C6.31784 2.162 6.35184 2.24 6.35184 2.336C6.35584 2.432 6.31584 2.53 6.23184 2.63L5.36784 3.686V3.278L6.30384 4.418C6.38784 4.514 6.42784 4.61 6.42384 4.706C6.41984 4.802 6.38184 4.882 6.30984 4.946C6.24184 5.01 6.15184 5.042 6.03984 5.042C5.93184 5.042 5.84184 5.024 5.76984 4.988C5.70184 4.948 5.63384 4.888 5.56584 4.808L4.86384 3.914H5.16984L4.46784 4.808C4.40384 4.884 4.33584 4.942 4.26384 4.982C4.19584 5.022 4.10784 5.042 3.99984 5.042Z" fill="white"/>
</svg>
